<svg width="64" height="64" viewBox="0 0 64 64" fill="none" xmlns="http://www.w3.org/2000/svg">
  <defs>
    <linearGradient id="iconGradient" x1="0%" y1="0%" x2="100%" y2="100%">
      <stop offset="0%" style="stop-color:#3B82F6;stop-opacity:1" />
      <stop offset="30%" style="stop-color:#8B5CF6;stop-opacity:1" />
      <stop offset="70%" style="stop-color:#06B6D4;stop-opacity:1" />
      <stop offset="100%" style="stop-color:#10B981;stop-opacity:1" />
    </linearGradient>
    <filter id="iconGlow" x="-50%" y="-50%" width="200%" height="200%">
      <feGaussianBlur stdDeviation="2" result="coloredBlur"/>
      <feMerge> 
        <feMergeNode in="coloredBlur"/>
        <feMergeNode in="SourceGraphic"/>
      </feMerge>
    </filter>
    <filter id="iconShadow" x="-50%" y="-50%" width="200%" height="200%">
      <feDropShadow dx="0" dy="4" stdDeviation="4" flood-color="#000000" flood-opacity="0.2"/>
    </filter>
  </defs>
  
  <!-- Background -->
  <rect width="64" height="64" rx="16" fill="white" filter="url(#iconShadow)"/>
  <rect x="2" y="2" width="60" height="60" rx="14" fill="url(#iconGradient)" opacity="0.1"/>
  
  <!-- Main icon -->
  <g transform="translate(8, 8)">
    <!-- Outer container -->
    <circle cx="24" cy="24" r="22" fill="none" stroke="url(#iconGradient)" stroke-width="2" opacity="0.3"/>
    
    <!-- Career growth path -->
    <path d="M12 36 L18 30 L24 24 L30 18 L36 12" stroke="url(#iconGradient)" stroke-width="4" stroke-linecap="round" stroke-linejoin="round" fill="none" filter="url(#iconGlow)"/>
    
    <!-- Career milestones -->
    <circle cx="12" cy="36" r="3" fill="url(#iconGradient)" filter="url(#iconGlow)"/>
    <circle cx="18" cy="30" r="3" fill="url(#iconGradient)" filter="url(#iconGlow)"/>
    <circle cx="24" cy="24" r="3" fill="url(#iconGradient)" filter="url(#iconGlow)"/>
    <circle cx="30" cy="18" r="3" fill="url(#iconGradient)" filter="url(#iconGlow)"/>
    <circle cx="36" cy="12" r="3" fill="url(#iconGradient)" filter="url(#iconGlow)"/>
    
    <!-- Success burst -->
    <g transform="translate(36, 12)">
      <path d="M6 0 L10 -4 M6 0 L10 4 M6 0 L2 0" stroke="url(#iconGradient)" stroke-width="2.5" stroke-linecap="round" opacity="0.9" filter="url(#iconGlow)"/>
      <path d="M4 -4 L8 -8 M4 4 L8 8" stroke="url(#iconGradient)" stroke-width="2" stroke-linecap="round" opacity="0.7"/>
    </g>
    
    <!-- AI connection lines -->
    <g opacity="0.4">
      <path d="M16 20 L20 20 M20 20 L20 24" stroke="url(#iconGradient)" stroke-width="1.5" stroke-dasharray="3,3"/>
      <circle cx="20" cy="20" r="1.5" fill="url(#iconGradient)"/>
      <circle cx="20" cy="24" r="1.5" fill="url(#iconGradient)"/>
    </g>
  </g>
</svg>